<?xml version="1.0" encoding="UTF-8"?>
<svg id="_图层_1" data-name="图层 1" xmlns="http://www.w3.org/2000/svg" viewBox="0 0 392.54 163.44">
  <defs>
    <style>
      .cls-1 {
        fill: #fff;
      }

      .cls-2 {
        fill: #2965a8;
      }

      .cls-3 {
        fill: #1f4e8e;
      }

      .cls-4 {
        fill: #444341;
      }

      .cls-5 {
        fill: #52adde;
      }
    </style>
  </defs>
  <path class="cls-5" d="m98.12,127.72c17.39-5.61,17.39-19.28,17.11-23.67-.28-4.39-1.94-15.83-21.39-19.5-19.44-3.67-35-7.83-43.17-13.83s-16.5-18.86-13.08-37.69C40.8,15.37,58.28-.74,92.09.88,49.83-4.8,10.61,17.63,1.78,54.21c-6.64,27.53,5.7,55.79,29.35,74.14.34,5.78.4,22.22-8.51,35.1,0,0,18.65-4.57,32.53-21.58,3.16-3.87,6.08-8.39,8.47-13.64,0,0,17.11,5.11,34.5-.5Z"/>
  <path class="cls-1" d="m131.5,96.16c-.69-2.85-1.69-5.73-3.1-8.6-9.89-20.22-39.39-21.44-56.14-26.03-4.08-1.12-7.26-2.58-9.74-4.28-7.71-5.29-8.57-12.85-7.9-19.24.89-8.44,8.56-18.22,26.83-19.67,18.28-1.44,34.47,6.61,34.47,6.61l5.73-15.32c-6.06-2.88-12.55-5.21-19.41-6.87-3.4-.82-6.79-1.43-10.16-1.88C58.28-.74,40.8,15.37,37.6,33.03c-3.42,18.83,4.92,31.69,13.08,37.69s23.72,10.17,43.17,13.83c19.44,3.67,21.11,15.11,21.39,19.5.28,4.39.28,18.06-17.11,23.67-17.39,5.61-34.5.5-34.5.5-2.39,5.26-5.31,9.77-8.47,13.64,4.04,1.56,8.25,2.88,12.6,3.93,2.82.68,5.63,1.23,8.43,1.65,20.82.26,31.37-3.57,41.55-10.78,9.82-6.96,17.91-23.25,13.76-40.51Z"/>
  <path class="cls-3" d="m81.46,18.33c-18.28,1.44-25.94,11.22-26.83,19.67-.67,6.39.19,13.95,7.9,19.24-1.36-6.69-.97-15.73,7.88-22.08,15.72-11.28,51.22-2.5,51.22-2.5l6.51-19.64c-2.1-1.2-4.25-2.34-6.47-3.4l-5.73,15.32s-16.19-8.06-34.47-6.61Z"/>
  <path class="cls-3" d="m131.5,96.16c4.15,17.26-3.94,33.55-13.76,40.51-10.18,7.22-20.73,11.04-41.55,10.78,18.08,2.76,35.67.33,50.66-6.16,15.48-20.65,8.5-38.33,4.66-45.13Z"/>
  <path class="cls-2" d="m128.14,13.02l-6.51,19.64s-35.5-8.78-51.22,2.5c-8.85,6.35-9.23,15.39-7.88,22.08,2.48,1.7,5.66,3.17,9.74,4.28,16.75,4.58,46.25,5.81,56.14,26.03,1.4,2.87,2.41,5.75,3.1,8.6,3.85,6.81,10.83,24.48-4.66,45.13,20.57-8.91,36.21-25.49,41.39-46.94,7.58-31.44-9.59-63.83-40.09-81.32Z"/>
  <g>
    <path class="cls-4" d="m227.44,90.26c-9.48,0-16.83,7.35-16.83,16.98s7.35,17.06,16.83,17.06c4.98,0,10.43-2.53,14.38-6.48l7.35,7.98c-5.84,6-14.3,9.87-22.36,9.87-16.51,0-28.99-12.24-28.99-28.28s12.72-27.96,29.46-27.96c7.98,0,16.35,3.55,21.8,9.16l-7.27,8.85c-3.79-4.34-9.24-7.19-14.38-7.19Z"/>
    <path class="cls-4" d="m300.44,108.43v26.7h-12.17v-23.15c0-5.37-3.16-8.69-8.37-8.69-6.08.08-9.79,4.66-9.79,10.9v20.93h-12.17v-58.61h12.17v23.62c3-5.29,8.06-7.9,14.69-7.98,9.56,0,15.64,6.32,15.64,16.27Z"/>
    <path class="cls-4" d="m336.7,135.13v-4.98c-2.84,3.55-7.43,5.53-13.35,5.53-9.08,0-14.61-5.53-14.61-13.27s5.77-12.72,16.19-12.8h11.69v-.79c0-4.5-3-7.11-8.85-7.11-3.79,0-8.21,1.26-12.64,3.71l-3.79-8.37c6.32-3.16,11.77-4.9,19.2-4.9,11.38,0,17.93,5.69,18.01,15.25l.08,27.73h-11.93Zm-.08-14.54v-3.79h-9.56c-4.66,0-6.95,1.42-6.95,4.82s2.53,5.37,6.64,5.37c5.13,0,9.16-2.76,9.87-6.4Z"/>
    <path class="cls-4" d="m386.62,132.76c-3.16,1.82-7.11,2.92-11.06,2.92-7.58,0-13.35-4.34-13.35-13.11v-19.67h-5.92v-8.37h5.92v-11.69h12.09v11.69h11.53v8.45h-11.53v17.54c0,3.55,1.5,4.98,4.11,4.9,1.58,0,3.48-.55,5.69-1.58l2.53,8.93Z"/>
  </g>
  <g>
    <path class="cls-5" d="m212.44,22.65c-3.81,0-6.29,1.43-6.29,4.03,0,8.44,20.84,3.92,20.79,17.81,0,6.89-6.07,11.14-14.56,11.14-6.07,0-11.8-2.48-15.77-6.12l2.81-5.62c3.97,3.64,8.93,5.62,13.07,5.62,4.52,0,7.22-1.71,7.22-4.69,0-8.6-20.84-3.81-20.84-17.54,0-6.62,5.68-10.75,14.06-10.75,5.02,0,9.93,1.6,13.51,3.97l-2.7,5.73c-4.19-2.54-8.38-3.58-11.3-3.58Z"/>
    <path class="cls-5" d="m242.11,17.69c0,2.15-1.6,3.75-3.69,3.75s-3.7-1.6-3.7-3.75,1.6-3.81,3.7-3.81,3.69,1.6,3.69,3.81Zm-.55,8.38v29.34h-6.29v-29.34h6.29Z"/>
    <path class="cls-5" d="m301.06,37.16v18.25h-6.34v-16.49c0-4.47-2.65-7.17-6.95-7.17-5.02.17-8.05,4.03-8.05,9.15v14.5h-6.34v-16.49c0-4.47-2.59-7.17-6.89-7.17-5.07.17-8.16,4.03-8.16,9.15v14.5h-6.29v-29.34h6.29v5.68c2.04-4.14,5.79-5.9,10.64-5.9,5.24,0,8.82,2.59,10.2,7.06,1.88-4.91,5.79-7.06,11.14-7.06,6.73,0,10.75,4.3,10.75,11.31Z"/>
    <path class="cls-5" d="m341.55,40.85c0,8.77-5.51,14.78-13.9,14.78-4.69,0-8.22-1.88-10.37-5.29v15.77h-6.34V26.07h6.34v5.07c2.15-3.42,5.68-5.29,10.26-5.29,8.33,0,14.01,6.07,14.01,15Zm-6.4-.22c0-5.46-3.69-9.49-8.93-9.49s-8.93,3.97-8.93,9.49,3.7,9.6,8.93,9.6,8.93-3.97,8.93-9.6Z"/>
    <path class="cls-5" d="m355.89,14.49v40.92h-6.34V14.49h6.34Z"/>
    <path class="cls-5" d="m392.45,43.17h-22.17c.99,4.52,4.47,7.33,9.1,7.33,3.2,0,6.12-1.21,8.27-3.42l3.36,3.58c-2.87,3.14-7.06,4.96-12.13,4.96-9.04,0-15-6.01-15-14.83s6.12-14.89,14.83-14.94c10.31,0,14.5,6.73,13.73,17.32Zm-5.51-4.63c-.22-4.74-3.36-7.61-8.16-7.61s-7.94,2.92-8.6,7.61h16.76Z"/>
  </g>
</svg>